<?xml version="1.0" standalone="no"?>
<!DOCTYPE svg PUBLIC "-//W3C//DTD SVG 20010904//EN"
 "http://www.w3.org/TR/2001/REC-SVG-20010904/DTD/svg10.dtd">
<svg version="1.0" xmlns="http://www.w3.org/2000/svg"
 width="512.000000pt" height="512.000000pt" viewBox="0 0 512.000000 512.000000"
 preserveAspectRatio="xMidYMid meet">

<g transform="translate(0.000000,512.000000) scale(0.100000,-0.100000)"
fill="#000000" stroke="none">
<path d="M0 2560 l0 -2560 2560 0 2560 0 0 2560 0 2560 -2560 0 -2560 0 0
-2560z m3160 1907 c0 -29 12 -98 26 -152 100 -393 418 -669 805 -701 l79 -7
-2 -326 -3 -326 -80 3 c-234 9 -477 81 -696 207 l-94 53 -5 -736 c-6 -712 -7
-740 -27 -817 -53 -200 -122 -340 -239 -491 -170 -219 -432 -380 -714 -440
-107 -23 -361 -26 -465 -5 -304 60 -565 224 -750 469 -319 424 -329 1009 -26
1439 181 257 454 433 766 494 110 22 369 29 388 10 6 -6 12 -143 15 -352 l5
-342 -29 7 c-64 15 -201 18 -257 6 -242 -50 -427 -277 -427 -525 0 -260 203
-497 459 -536 219 -33 452 85 551 281 70 138 64 18 68 1503 l3 1337 324 0 325
0 0 -53z"/>
</g>
</svg>
