<?xml version="1.0" standalone="no"?>
<!DOCTYPE svg PUBLIC "-//W3C//DTD SVG 20010904//EN"
 "http://www.w3.org/TR/2001/REC-SVG-20010904/DTD/svg10.dtd">
<svg version="1.0" xmlns="http://www.w3.org/2000/svg"
 width="512.000000pt" height="512.000000pt" viewBox="0 0 512.000000 512.000000"
 preserveAspectRatio="xMidYMid meet">

<g transform="translate(0.000000,512.000000) scale(0.100000,-0.100000)"
fill="#000000" stroke="none">
<path d="M0 2560 l0 -2560 2560 0 2560 0 0 2560 0 2560 -2560 0 -2560 0 0
-2560z m3560 653 l0 -548 -202 -202 -203 -203 -200 0 -200 0 -172 -172 -173
-173 0 173 0 172 -225 0 -225 0 0 750 0 750 800 0 800 0 0 -547z"/>
<path d="M2510 3110 l0 -300 100 0 100 0 0 300 0 300 -100 0 -100 0 0 -300z"/>
<path d="M3060 3110 l0 -300 100 0 100 0 0 300 0 300 -100 0 -100 0 0 -300z"/>
</g>
</svg>
